<?xml version="1.0" encoding="UTF-8" standalone="no"?>
<!-- Created with Inkscape (http://www.inkscape.org/) -->

<svg
   xmlns:dc="http://purl.org/dc/elements/1.1/"
   xmlns:cc="http://creativecommons.org/ns#"
   xmlns:rdf="http://www.w3.org/1999/02/22-rdf-syntax-ns#"
   xmlns:svg="http://www.w3.org/2000/svg"
   xmlns="http://www.w3.org/2000/svg"
   xmlns:sodipodi="http://sodipodi.sourceforge.net/DTD/sodipodi-0.dtd"
   xmlns:inkscape="http://www.inkscape.org/namespaces/inkscape"
   version="1.1"
   id="svg904"
   width="846.1925"
   height="844.93201"
   viewBox="0 0 846.1925 844.93201"
   sodipodi:docname="karat_logo.svg"
   inkscape:version="0.92.2 (5c3e80d, 2017-08-06)">
  <metadata
     id="metadata910">
    <rdf:RDF>
      <cc:Work
         rdf:about="">
        <dc:format>image/svg+xml</dc:format>
        <dc:type
           rdf:resource="http://purl.org/dc/dcmitype/StillImage" />
        <dc:title></dc:title>
      </cc:Work>
    </rdf:RDF>
  </metadata>
  <defs
     id="defs908" />
  <sodipodi:namedview
     pagecolor="#ffffff"
     bordercolor="#666666"
     borderopacity="1"
     objecttolerance="10"
     gridtolerance="10"
     guidetolerance="10"
     inkscape:pageopacity="0"
     inkscape:pageshadow="2"
     inkscape:window-width="1920"
     inkscape:window-height="1053"
     id="namedview906"
     showgrid="false"
     inkscape:zoom="0.88541667"
     inkscape:cx="480.04178"
     inkscape:cy="364.47586"
     inkscape:window-x="0"
     inkscape:window-y="27"
     inkscape:window-maximized="1"
     inkscape:current-layer="svg904"
     fit-margin-top="0"
     fit-margin-left="0"
     fit-margin-right="0"
     fit-margin-bottom="0" />
  <path
     style="fill:#ffffff;fill-opacity:1"
     d="m 182.783,844.42585 c -8.0982,-0.4742 -10.90596,-1.0687 -14.58189,-3.0873 -3.01538,-1.6559 -31.39254,-29.51175 -84.043979,-82.50004 C 21.914971,696.19815 4.15947,677.77776 2.33284,673.95015 L 0,669.06179 0.22839,423.61915 C 0.41086,227.52546 0.7143,177.32086 1.73756,173.92081 4.28502,165.45625 -3.59879,173.82161 108.1667,60.991042 155.02068,13.69058 163.27497,5.77885 168.1544,3.49294 l 5.65797,-2.65065 42.5,-0.0648 c 23.375,-0.0357 135.03975,-0.22517 248.14391,-0.42115 L 670.10019,0 l 5.85609,2.82558 c 4.94616,2.38653 10.43019,7.50154 35.29419,32.91925 16.19096,16.551522 51.32278,51.918682 78.0707,78.59369 26.74792,26.675 49.82528,50.10044 51.28301,52.05654 6.07935,8.1577 5.74466,-7.74439 5.46421,259.61445 l -0.25603,244.07532 -2.5,3.4865 c -3.23782,4.51546 -72.30343,75.21048 -122.93082,125.83103 -33.59068,33.5861 -40.47572,40.0075 -45.56918,42.5 l -6,2.9362 -238,0.087 c -130.89999,0.048 -242.51321,-0.177 -248.02936,-0.5 z m 179.66597,-72.9211 c -39.33194,-43.11092 -48.24228,-52.67729 -49.0046,-52.61264 -0.3476,0.0295 -4.232,1.82948 -8.632,4 l -8,3.9464 -26.46389,0.5 -26.4639,0.5 -4.96027,8 c -11.48811,18.52816 -40.88061,67.03657 -41.33208,68.21309 -0.39507,1.02951 18.37644,1.32639 96.86506,1.53194 53.54529,0.14024 97.50059,-0.0691 97.67845,-0.46517 0.17786,-0.39607 -13.18119,-15.5222 -29.68677,-33.61362 z m 268.49971,8.57404 C 622.51743,766.19663 611.84882,748.68723 607.24064,741.169 l -8.37849,-13.66952 -22.02489,-0.36802 c -24.30294,-0.40608 -29.90404,-1.53267 -39.36499,-7.91779 -2.39691,-1.61766 -4.69109,-3.03884 -5.09818,-3.15818 -1.15384,-0.33825 -82.06163,87.54038 -82.0618,89.13207 -4e-5,0.35802 44.09228,0.53407 97.98294,0.39123 l 97.983,-0.25973 z m -171.09595,-9.21061 c 17.0278,-18.68368 37.82832,-41.32913 46.22339,-50.32322 9.3253,-9.99069 14.98673,-16.81073 14.55168,-17.52967 -0.39164,-0.64723 -4.07497,-5.45178 -8.18518,-10.67678 -4.1102,-5.225 -7.5509,-9.61745 -7.646,-9.76099 -0.0951,-0.14355 -39.50547,-0.2631 -87.57859,-0.26567 l -87.40566,-0.005 -0.62895,6.26567 c -0.62399,6.21628 -2.95747,13.95994 -4.91887,16.32329 -0.74836,0.90172 1.4585,3.8643 8.26339,11.09309 11.32347,12.02887 35.64561,38.48308 62.18783,67.6392 l 19.8364,21.7899 7.17047,-0.2899 7.17047,-0.28991 30.95962,-33.97033 z M 207.9643,755.93635 c 10.64144,-17.54619 19.34807,-32.01177 19.34807,-32.14575 0,-0.13398 -2.22625,-1.67218 -4.94722,-3.41822 -9.65256,-6.19403 -16.83464,-16.99267 -18.9645,-28.51413 -0.65729,-3.55561 -1.08828,-20.37829 -1.08828,-42.47843 v -36.59137 l -7.47075,-7.42088 c -4.10891,-4.08149 -7.65011,-7.22023 -7.86933,-6.97498 -0.40568,0.45386 -2.71283,158.31184 -2.67382,182.94592 l 0.0214,13.5 2.14819,-3.5 c 1.18151,-1.925 10.85483,-17.85597 21.49626,-35.40216 z m 450.97335,16.65216 c -0.33292,-11.9625 -0.88961,-51.8465 -1.23709,-88.6311 -0.34748,-36.78461 -0.91448,-71.1056 -1.25999,-76.26888 l -0.62821,-9.38778 -15.19574,15.26888 -15.19574,15.26888 13.47739,18 c 11.30021,15.09223 13.81495,19.10311 15.56702,24.8286 5.63421,18.41181 -1.71003,37.96545 -18.28281,48.67695 -3.13362,2.02535 -8.43633,4.45094 -11.7838,5.39019 -3.34748,0.93926 -6.08632,1.94116 -6.08632,2.22645 0,0.45709 34.98549,58.33608 38.76265,64.12781 0.80705,1.2375 1.6925,2.25 1.96766,2.25 0.27515,0 0.2279,-9.7875 -0.10502,-21.75 z m -489.13374,-116.19765 0.76072,-75.44766 -2.37613,1.51381 c -1.30687,0.83259 -30.85406,18.79232 -65.6604,39.91051 l -63.28425,38.3967 64.28425,64.29328 64.28427,64.29329 0.61541,-28.75614 c 0.33847,-15.81588 0.95773,-62.70758 1.37613,-104.20379 z m 569.83531,68.45033 63.82686,-64.1737 -65.28038,-39.66097 c -35.90421,-21.81354 -65.63988,-39.30147 -66.07927,-38.86208 -0.43939,0.43939 -0.35488,13.37531 0.1878,28.74648 0.54269,15.37118 0.99377,44.18639 1.00242,64.03381 0.0202,46.40501 1.16876,114.46112 1.92819,114.25197 0.32314,-0.089 29.30961,-29.03997 64.41438,-64.33551 z M 293.34968,692.58851 c 1.83468,-1.64405 3.44013,-4.35865 3.99203,-6.75 0.51466,-2.22997 0.92711,-33.60492 0.93209,-70.90268 l 0.009,-66.90268 3.26483,-4.16724 c 6.60393,-8.42939 73.22589,-85.5274 73.9059,-85.5274 0.38667,0 13.67516,17.4375 29.52998,38.75 75.73384,101.8036 110.07159,147.23572 136.104,180.07855 8.87477,11.19653 12.27183,14.74374 15.54108,16.22803 3.7784,1.71545 6.82884,1.90162 31.48343,1.92146 29.48234,0.0237 31.17674,-0.24069 34.55184,-5.39174 3.69234,-5.63523 2.58272,-8.32008 -10.67112,-25.81994 C 589.13893,633.92956 432.75185,426.92492 425.4001,417.11808 l -7.28698,-9.72043 98.35924,-114.77957 c 54.09758,-63.12876 99.36741,-116.07776 100.59962,-117.66443 2.45921,-3.16664 2.97357,-8.91185 1.15517,-12.90282 -2.41294,-5.29581 -4.59199,-5.69479 -32.57164,-5.96383 -14.21373,-0.13667 -27.86815,0.14475 -30.34315,0.62537 -6.03564,1.17207 -11.71133,7.04748 -44.08168,45.63285 -40.23834,47.964 -212.08646,250.46549 -212.78746,250.74336 -0.34697,0.13754 -0.49831,-63.08746 -0.33632,-140.5 0.16199,-77.41254 0.0176,-142.69112 -0.32079,-145.06352 -0.38444,-2.69501 -1.68295,-5.50906 -3.46078,-7.5 l -2.84546,-3.18655 -23.83375,-0.32042 c -20.90883,-0.28109 -24.22613,-0.11184 -27.03107,1.37911 -6.83842,3.63491 -6.30268,-19.1788 -6.30268,268.3921 0,230.24819 0.17385,260.48472 1.51257,263.07352 2.86465,5.53962 4.68711,5.89173 30.72165,5.93565 l 23.73423,0.04 3.06886,-2.75 z m 184.79601,-44 c -0.18333,-0.4125 -18.50856,-25.05 -40.72272,-54.75 -22.21417,-29.7 -45.6357,-61.04483 -52.04785,-69.65518 l -11.65846,-15.65518 -21.45215,24.94769 c -16.93404,19.69338 -21.59796,25.72853 -22.14451,28.65518 -0.3808,2.03912 -0.7183,22.49499 -0.75,45.45749 l -0.0576,41.75 h 74.58332 c 41.02084,0 74.43334,-0.3375 74.25,-0.75 z M 80.02248,618.71891 c 21.88443,-13.04214 49.57738,-29.74945 61.53988,-37.12737 20.90108,-12.89081 21.75078,-13.5381 21.76984,-16.58371 0.0159,-2.5397 -0.96474,-4.06329 -4.93625,-7.66932 -2.72584,-2.475 -13.64727,-12.40517 -24.26984,-22.06705 -22.77823,-20.71822 -95.6004,-84.93295 -96.31747,-84.93295 -0.27295,0 -0.49628,43.47314 -0.49628,96.60699 0,84.28922 0.18618,96.53555 1.46012,96.04669 0.803061,-0.30817 19.365561,-11.23114 41.25,-24.27328 z m 729.28988,-71.8804 c 0,-53.075 -0.32204,-96.5 -0.71565,-96.5 -0.39361,0 -2.75611,1.9579 -5.25,4.3509 -2.49389,2.39299 -19.38435,17.33106 -37.53435,33.19571 -34.78662,30.40646 -55.00088,48.42433 -72.75,64.8453 -13.82717,12.7925 -13.85723,13.10782 -1.96223,20.58346 20.29671,12.75587 115.81798,69.88392 116.96223,69.95117 0.99187,0.0583 1.25,-19.85403 1.25,-96.42654 z m -180.3726,34.75 21.27037,-21.75 0.0511,-140.58026 0.0511,-140.58026 -21.57291,-21.31905 c -20.99705,-20.74998 -21.6208,-21.26836 -23.36734,-19.41974 -0.98694,1.04462 -34.3194,39.88305 -74.07212,86.30762 -52.41191,61.20838 -72.03168,84.77599 -71.38266,85.74605 4.9282,7.36592 146.13057,193.26471 146.82355,193.2993 0.51068,0.0255 10.50018,-9.74116 22.19888,-21.70366 z M 202.31237,420.63556 V 272.93261 l -4,3.9059 -4,3.9059 V 420.7493 560.75418 l 3.70295,3.79217 c 2.03662,2.08569 3.83662,3.79216 4,3.79216 0.16338,0 0.29705,-66.46633 0.29705,-147.70295 z m 501.51741,101.11563 c 7.15957,-6.55197 33.0453,-29.50555 57.52383,-51.00794 24.47853,-21.50239 45.28319,-39.87204 46.23258,-40.82143 1.29076,-1.29076 1.72617,-3.41316 1.72617,-8.4142 v -6.68804 l -34.70272,-31.49054 c -32.601,-29.58335 -61.76473,-56.43196 -83.04728,-76.45469 l -9.25,-8.70244 v 121.79151 121.79151 l 4.25,-4.04553 c 2.3375,-2.22504 10.10784,-9.40623 17.26742,-15.95821 z M 163.61025,301.46973 c -0.11116,-0.20284 -7.45369,6.32216 -16.31674,14.5 -8.86304,8.17783 -37.12208,33.54378 -62.79788,56.36878 l -46.68327,41.5 -0.29774,6.84001 c -0.19645,4.5131 0.14142,7.36917 0.99319,8.39548 0.71,0.85551 17.94398,16.20567 38.29773,34.11147 37.13237,32.66645 58.76811,52.03851 76.48945,68.48662 l 9.51738,8.83358 0.5,-119.33358 c 0.275,-65.63347 0.40905,-119.49953 0.29788,-119.70236 z m -93.08324,62.2305 c 46.03782,-40.83721 58.18316,-51.73249 76.53535,-68.65795 21.50506,-19.83322 21.50097,-17.966 0.0679,-31.03861 -19.44881,-11.86239 -105.669679,-62.28732 -108.09656,-63.2186 -1.62109,-0.62207 -1.72134,4.93653 -1.72134,95.44645 0,52.85885 0.2091,96.10699 0.46465,96.10699 0.25556,0 14.99305,-12.88722 32.75,-28.63828 z m 738.78535,-67.86172 c 0,-53.075 -0.20959,-96.5 -0.46575,-96.5 -0.79722,0 -90.07212,50.64251 -108.83761,61.73975 -16.70244,9.87722 -17.78461,10.69745 -17.5,13.26404 0.22544,2.0331 3.95462,6.21306 14.51906,16.27412 24.33158,23.17221 110.3828,101.62291 111.5343,101.68297 0.4125,0.0215 0.75,-43.38588 0.75,-96.46088 z m -458.34924,46.5 c 18.11651,-21.33679 109.45956,-129.09664 120.17559,-141.77437 2.45203,-2.90091 4.28171,-5.43984 4.06595,-5.64209 -0.21577,-0.20224 -33.1298,-0.12438 -73.1423,0.17301 l -72.74999,0.54072 v 85.4347 c 0,46.98908 0.38194,85.2847 0.84876,85.10136 0.46682,-0.18333 9.82772,-10.90833 20.80199,-23.83333 z M 170.11767,203.58923 c -0.38208,-31.2129 -0.99874,-77.62025 -1.37035,-103.12745 l -0.67565,-46.376738 -63.87966,63.873808 c -35.13381,35.13059 -63.85691,64.32512 -63.82912,64.87673 0.0509,1.00925 127.58281,77.29287 129.44948,77.43059 0.66334,0.0489 0.76612,-19.03182 0.3053,-56.67694 z m 567.20876,17.19132 c 34.91726,-20.10688 63.89469,-36.96314 64.39429,-37.45836 0.54159,-0.53685 -24.89522,-27.0101 -63,-65.56698 l -63.90836,-64.666588 -0.61479,40.87494 c -1.5769,104.841918 -2.01407,163.374948 -1.22023,163.374948 0.47474,0 29.43183,-16.45108 64.34909,-36.55796 z m -542.65324,15.80796 7.6074,-7.75 0.0159,-31.61351 c 0.009,-17.38743 0.47521,-34.03548 1.0366,-36.99567 2.48724,-13.11518 11.80172,-25.70071 22.81646,-30.82912 2.88033,-1.34106 5.10778,-2.98408 4.94989,-3.65116 -0.5031,-2.12568 -46.25326,-76.34112 -47.08237,-76.37656 -0.43743,-0.0187 -0.57113,1.42851 -0.29711,3.216012 0.27401,1.7875 0.74788,32.275 1.05304,67.750008 0.52608,61.15554 1.57328,124 2.06625,124 0.12461,0 3.64988,-3.4875 7.83395,-7.75 z m 463.19599,-91.99259 c 0.68107,-52.666578 1.10896,-95.89536 0.95087,-96.06396 -0.42846,-0.45694 -45.50769,74.63052 -45.50769,75.80114 0,0.55297 1.10927,1.00541 2.46505,1.00541 8.0472,0 20.81943,7.66402 27.18686,16.31355 6.19147,8.41052 8.70912,17.25197 8.16332,28.66784 -0.3692,7.72228 -0.88749,9.76737 -4.10028,16.17912 -2.15877,4.30824 -7.04625,11.20094 -11.83393,16.6891 l -8.15628,9.34962 14.33953,14.36515 c 7.88674,7.90084 14.54534,14.15935 14.79688,13.9078 0.25155,-0.25154 1.0146,-43.54819 1.69567,-96.21477 z M 440.39752,164.649 501.81236,163.95949 512.54095,151.68895 523.26954,139.41842 476.08329,88.878452 428.89704,38.3385 h -7.25276 -7.25277 L 371.60194,85.906822 C 348.06768,112.06941 327.08682,135.459 324.97782,137.88371 l -3.83456,4.40857 2.21797,3.11484 c 2.44921,3.43961 5.95114,13.74947 5.95114,17.52048 v 2.41091 h 24.83515 c 13.65933,0 52.47183,-0.31028 86.25,-0.68951 z M 324.46479,115.33851 c 5.233,-5.775 21.5796,-24.000008 36.32577,-40.500008 14.74619,-16.5 27.95531,-31.237502 29.35361,-32.750002 l 2.54237,-2.75 h -98.16513 -98.16514 l 6.72805,10.87127 c 3.70043,5.979202 15.50305,25.080812 26.22805,42.448012 l 19.5,31.576738 20.11351,0.052 c 21.89632,0.0566 28.02499,0.81575 35.78891,4.43309 l 5.09758,2.37504 2.56894,-2.62806 c 1.41292,-1.44545 6.85048,-7.35308 12.08348,-13.12808 z m 237.00569,9.06823 c 6.96197,-0.42501 17.18196,-0.55491 22.71109,-0.28867 l 10.05296,0.48409 3.62356,-5.88183 c 27.31992,-44.346098 48.04976,-79.06303 47.64451,-79.7918 -0.52683,-0.94741 -192.97368,-0.13992 -193.9273,0.8137 -0.2855,0.28549 10.71611,12.348952 24.44802,26.807672 13.7319,14.45873 32.79327,34.632598 42.3586,44.830818 l 17.39151,18.5422 6.51946,-2.37171 c 4.80932,-1.74958 9.83989,-2.57442 19.17759,-3.14447 z"
     id="path914"
     inkscape:connector-curvature="0" />
</svg>
